<?xml version="1.0" standalone="no"?>
<!DOCTYPE svg PUBLIC "-//W3C//DTD SVG 20010904//EN"
 "http://www.w3.org/TR/2001/REC-SVG-20010904/DTD/svg10.dtd">
<svg version="1.0" xmlns="http://www.w3.org/2000/svg"
 width="3071.000000pt" height="3071.000000pt" viewBox="0 0 3071.000000 3071.000000"
 preserveAspectRatio="xMidYMid meet">

<g transform="translate(0.000000,3071.000000) scale(0.100000,-0.100000)"
fill="#000000" stroke="none">
<path d="M13995 18708 c-391 -707 -900 -1237 -1585 -1650 -85 -51 -181 -107
-212 -123 -32 -17 -58 -32 -58 -35 0 -3 69 -41 152 -85 726 -384 1324 -985
1696 -1702 40 -79 75 -143 77 -143 1 0 30 49 63 109 236 426 540 823 847 1103
278 255 614 496 919 659 53 28 96 54 96 57 0 4 -33 23 -72 42 -207 101 -477
270 -663 415 -475 370 -848 819 -1128 1353 l-64 123 -68 -123z"/>
<path d="M18597 18788 c-158 -281 -253 -431 -397 -624 -359 -482 -787 -854
-1358 -1179 l-153 -88 148 -76 c368 -191 658 -405 979 -726 317 -316 509 -574
724 -973 l83 -152 89 157 c216 379 438 674 723 958 284 285 579 507 958 723
l158 90 -128 67 c-394 207 -676 415 -994 734 -107 108 -234 243 -281 301 -175
215 -340 468 -466 713 l-60 118 -25 -43z"/>
<path d="M16280 15653 c-270 -463 -580 -773 -1043 -1043 l-108 -63 115 -62
c237 -131 422 -272 616 -471 189 -194 307 -354 425 -577 l57 -107 73 124 c263
451 579 766 1033 1028 l113 66 -83 42 c-457 235 -835 611 -1087 1081 l-48 90
-63 -108z"/>
<path d="M4432 12064 c-273 -39 -564 -163 -787 -333 -350 -267 -587 -651 -667
-1079 -31 -167 -31 -447 0 -614 154 -824 873 -1428 1699 -1428 292 0 528 55
788 185 178 89 296 175 450 330 120 120 192 211 258 325 l26 45 -299 121 -298
120 -44 -60 c-100 -139 -282 -293 -436 -370 -567 -284 -1258 36 -1476 685 -65
193 -73 436 -21 634 33 127 125 317 204 421 223 295 555 458 896 441 327 -17
615 -184 855 -496 l25 -32 280 114 c154 62 288 116 298 120 15 6 14 12 -15 59
-106 177 -301 384 -478 511 -173 123 -441 240 -640 281 -191 38 -438 47 -618
20z"/>
<path d="M17440 12073 c-434 -33 -761 -176 -942 -414 -108 -142 -160 -278
-177 -469 -40 -424 146 -740 543 -925 180 -84 306 -118 771 -209 393 -77 526
-122 626 -216 184 -173 82 -459 -208 -580 -106 -45 -196 -60 -347 -60 -237 0
-400 43 -651 170 -82 42 -213 115 -289 163 -77 48 -140 86 -141 85 -122 -178
-335 -499 -335 -506 0 -17 334 -230 460 -293 284 -142 590 -209 956 -209 429
0 749 95 988 294 116 97 225 281 268 451 20 78 23 116 23 280 0 216 -10 272
-76 413 -89 193 -213 316 -418 417 -162 80 -296 121 -566 174 -230 46 -549
126 -659 165 -211 75 -316 178 -316 309 0 13 7 48 16 78 13 43 28 66 78 115
198 195 614 234 976 92 98 -39 279 -134 376 -198 63 -41 80 -48 90 -38 37 37
343 482 337 491 -3 5 -67 50 -142 99 -157 102 -336 193 -467 237 -211 69 -522
103 -774 84z"/>
<path d="M6700 10350 l0 -1680 1235 0 1235 0 -2 288 -3 287 -912 3 -913 2 0
395 0 395 810 0 810 0 0 290 0 290 -810 0 -810 0 0 420 0 420 915 0 915 0 0
285 0 285 -1235 0 -1235 0 0 -1680z"/>
<path d="M9830 10351 l0 -1681 320 0 320 0 0 535 0 535 318 0 318 0 194 -272
c106 -150 281 -391 389 -535 l196 -263 377 0 c208 0 378 3 378 6 0 9 -230 322
-547 746 l-281 376 60 26 c34 15 98 51 142 80 332 216 512 592 492 1026 -25
557 -349 951 -881 1073 -86 20 -125 21 -942 24 l-853 4 0 -1680z m1662 1098
c114 -24 236 -115 297 -223 50 -88 72 -178 78 -316 4 -97 2 -140 -11 -190 -49
-194 -179 -335 -366 -396 -49 -16 -106 -18 -537 -22 l-483 -3 0 580 0 581 485
0 c316 0 502 -4 537 -11z"/>
<path d="M19100 11745 l0 -285 480 0 480 0 0 -1395 0 -1395 315 0 315 0 0
1395 0 1395 480 0 480 0 0 285 0 285 -1275 0 -1275 0 0 -285z"/>
<path d="M24940 10351 l0 -1681 320 0 320 0 0 535 0 535 319 0 318 0 44 -62
c142 -205 396 -556 553 -765 l181 -243 378 0 c207 0 377 3 377 6 0 9 -292 406
-591 805 l-237 316 67 31 c268 124 477 362 570 650 44 135 56 220 55 402 0
128 -5 186 -21 260 -99 455 -400 758 -858 863 -86 20 -125 21 -942 24 l-853 4
0 -1680z m1662 1098 c164 -34 302 -176 353 -364 26 -92 31 -285 11 -365 -49
-194 -179 -335 -366 -396 -49 -16 -106 -18 -537 -22 l-483 -3 0 580 0 581 485
0 c316 0 502 -4 537 -11z"/>
<path d="M13602 10352 c-468 -919 -852 -1673 -852 -1676 0 -3 155 -6 343 -6
l344 0 128 265 129 265 790 0 791 0 133 -265 132 -265 345 0 346 0 -190 373
c-105 204 -489 957 -854 1672 l-664 1300 -34 3 -34 3 -853 -1669z m1123 -82
c125 -267 230 -493 232 -502 5 -17 -22 -18 -472 -18 -412 0 -476 2 -473 15 7
34 473 1004 479 997 3 -4 109 -225 234 -492z"/>
<path d="M22092 10352 c-468 -919 -852 -1673 -852 -1676 0 -3 155 -6 343 -6
l344 0 128 265 129 265 790 0 791 0 133 -265 132 -265 345 0 346 0 -195 383
c-108 210 -492 963 -854 1672 l-659 1290 -34 3 -34 3 -853 -1669z m1123 -82
c125 -267 230 -493 232 -502 5 -17 -22 -18 -472 -18 -409 0 -476 2 -473 14 8
35 473 1005 479 998 3 -4 109 -225 234 -492z"/>
<path d="M11720 7689 c-366 -42 -628 -406 -556 -769 42 -207 171 -374 366
-471 263 -131 622 -40 792 201 22 32 40 62 40 66 0 4 -48 26 -106 50 l-106 42
-62 -64 c-41 -43 -84 -75 -127 -97 -60 -29 -74 -32 -161 -32 -88 0 -101 3
-163 33 -38 19 -90 56 -119 85 -112 112 -157 292 -109 436 43 125 119 214 231
269 49 24 66 27 160 27 100 0 108 -2 170 -34 38 -20 89 -58 123 -94 l58 -60
109 43 109 44 -17 30 c-29 50 -123 146 -184 187 -131 89 -288 127 -448 108z"/>
<path d="M18915 7689 c-318 -33 -575 -322 -575 -649 0 -293 217 -568 502 -635
246 -58 520 42 668 243 57 77 64 66 -77 123 l-94 38 -61 -64 c-41 -45 -81 -75
-126 -97 -61 -30 -75 -33 -162 -33 -86 0 -101 3 -162 32 -91 43 -159 113 -205
209 -104 218 -13 474 207 582 49 24 66 27 160 27 101 0 107 -1 170 -35 36 -19
91 -62 123 -94 l58 -59 109 44 108 44 -16 28 c-32 55 -123 146 -190 191 -134
88 -273 122 -437 105z"/>
<path d="M12560 7040 l0 -630 460 0 460 0 0 110 0 110 -345 0 -346 0 3 148 3
147 303 3 302 2 0 105 0 105 -302 2 -303 3 -3 158 -3 157 346 0 345 0 0 105 0
105 -460 0 -460 0 0 -630z"/>
<path d="M13730 7040 l0 -630 120 0 120 0 2 203 3 202 116 3 116 3 43 -63 c24
-35 91 -127 148 -205 l103 -143 140 0 c76 0 139 3 139 6 0 4 -67 98 -150 209
-82 112 -150 206 -150 209 0 3 18 15 40 26 187 96 265 338 179 565 -31 82
-130 182 -214 216 -59 24 -67 24 -407 27 l-348 3 0 -631z m669 399 c48 -26 77
-71 92 -138 20 -95 -10 -186 -78 -238 l-36 -28 -204 -3 -203 -3 0 215 0 216
196 0 c179 0 199 -2 233 -21z"/>
<path d="M15148 7046 c-175 -343 -318 -626 -318 -630 0 -3 56 -6 125 -6 l125
0 50 100 50 100 298 0 298 0 49 -100 49 -100 129 0 128 0 -192 378 c-376 739
-451 882 -462 882 -7 0 -155 -281 -329 -624z m423 -39 l85 -182 -174 -3 c-96
-1 -177 -1 -179 1 -6 7 170 377 176 371 3 -3 45 -87 92 -187z"/>
<path d="M16280 7040 l0 -630 120 0 120 0 2 319 3 319 185 -225 c102 -124 190
-229 196 -234 7 -6 75 68 205 226 l194 234 3 -319 2 -320 120 0 120 0 0 631
c0 484 -3 630 -12 627 -6 -2 -147 -164 -313 -359 -165 -195 -306 -354 -311
-354 -6 0 -147 161 -314 358 -166 196 -307 357 -311 357 -5 0 -9 -281 -9 -630z"/>
<path d="M17860 7040 l0 -630 120 0 120 0 0 630 0 630 -120 0 -120 0 0 -630z"/>
<path d="M7085 7301 c-30 -59 -118 -153 -190 -203 l-73 -51 56 -37 c73 -47
146 -119 193 -193 l37 -57 26 44 c38 64 119 150 184 193 31 21 58 42 60 46 2
5 -23 25 -55 46 -65 42 -150 131 -189 197 -14 24 -28 44 -30 44 -2 0 -10 -13
-19 -29z"/>
<path d="M23576 7286 c-38 -64 -119 -150 -184 -193 -31 -21 -59 -41 -62 -45
-3 -3 23 -25 57 -47 70 -47 151 -131 190 -198 l26 -44 37 58 c46 73 118 146
192 193 l56 37 -73 51 c-72 50 -160 144 -190 203 -9 16 -17 29 -19 29 -2 0
-16 -20 -30 -44z"/>
<path d="M21115 5467 c-47 -18 -71 -39 -97 -82 -21 -36 -23 -54 -26 -182 l-4
-141 -65 -4 c-35 -2 -72 1 -81 6 -9 5 -45 10 -79 10 -71 1 -102 -16 -143 -79
l-25 -38 -3 52 -3 51 -70 0 -69 0 0 -325 0 -325 69 0 69 0 4 208 c4 183 7 212
25 254 12 25 33 54 48 64 30 20 109 23 142 6 17 -10 21 -6 39 41 l19 52 3 -52
3 -53 60 0 59 0 0 -260 0 -260 70 0 70 0 0 260 0 260 75 0 75 0 0 65 0 65 -75
0 -75 0 0 105 c0 151 23 195 100 195 17 0 40 -5 51 -10 18 -10 19 -7 19 53 0
59 -2 65 -22 71 -37 9 -131 5 -163 -7z"/>
<path d="M15050 4940 l0 -530 70 0 70 0 0 530 0 530 -70 0 -70 0 0 -530z"/>
<path d="M26740 4940 l0 -530 70 0 70 0 0 168 c0 256 14 312 91 357 41 24 142
27 182 6 53 -28 61 -65 65 -308 l4 -223 69 0 69 0 0 243 c0 313 -11 351 -108
398 -36 18 -64 23 -122 24 -98 0 -143 -17 -207 -78 l-53 -50 0 262 0 261 -65
0 -65 0 0 -530z"/>
<path d="M17746 4933 c-130 -280 -236 -511 -236 -515 0 -5 35 -8 78 -8 l79 0
58 130 57 130 202 0 202 0 56 -127 55 -128 83 -3 c64 -2 81 0 77 10 -7 18
-469 1012 -472 1016 -1 1 -108 -226 -239 -505z m293 77 c21 -52 51 -121 65
-152 l26 -58 -145 0 -144 0 35 78 c47 103 79 179 94 227 11 34 14 37 21 20 4
-11 26 -63 48 -115z"/>
<path d="M6515 5421 c-155 -38 -239 -189 -193 -345 19 -62 96 -133 208 -190
198 -101 237 -139 227 -223 -10 -90 -72 -137 -174 -130 -36 3 -76 13 -95 24
-30 17 -71 66 -81 96 -2 7 -23 3 -63 -15 -68 -30 -71 -42 -28 -115 50 -86 149
-133 279 -133 141 0 241 54 292 157 24 50 28 70 28 143 0 74 -3 91 -27 131
-35 59 -72 87 -220 165 -127 66 -161 92 -184 136 -18 35 -18 62 3 105 18 39
77 73 128 73 41 0 107 -32 133 -64 l21 -27 60 31 61 30 -15 29 c-50 98 -221
156 -360 122z"/>
<path d="M11350 5414 c-129 -34 -262 -131 -324 -236 -206 -352 46 -788 456
-788 144 0 263 47 368 146 111 105 160 219 160 375 0 144 -41 247 -141 354
-128 137 -338 197 -519 149z m276 -158 c75 -35 118 -70 157 -129 147 -225 40
-519 -213 -583 -310 -78 -561 260 -408 549 31 58 98 126 150 153 94 49 220 53
314 10z"/>
<path d="M14714 5420 c-58 -24 -70 -95 -25 -141 40 -40 82 -39 123 1 26 27 30
36 25 67 -4 20 -14 45 -24 55 -22 21 -70 31 -99 18z"/>
<path d="M23737 5133 c-37 -164 -89 -394 -116 -510 l-48 -213 72 0 71 0 54
248 c30 136 59 278 65 317 l11 70 19 -52 c11 -28 81 -177 155 -332 l135 -282
137 276 c76 151 145 301 155 333 l17 57 9 -55 c5 -30 34 -172 66 -315 l57
-260 73 -3 c72 -3 73 -2 68 20 -4 12 -57 242 -119 510 -62 268 -115 488 -118
488 -3 0 -80 -164 -172 -365 -91 -201 -169 -367 -173 -368 -4 -1 -17 23 -29
54 -29 77 -310 679 -316 679 -3 0 -36 -134 -73 -297z"/>
<path d="M2960 5406 c0 -2 74 -123 165 -269 l165 -265 0 -231 0 -232 78 3 77
3 5 235 5 235 163 256 c89 141 162 259 162 262 0 4 -33 7 -73 7 l-74 0 -104
-162 c-57 -90 -115 -185 -130 -212 l-27 -49 -17 34 c-10 19 -67 114 -127 212
l-110 177 -79 0 c-43 0 -79 -2 -79 -4z"/>
<path d="M13870 5345 l0 -65 130 0 130 0 0 -435 0 -435 80 0 80 0 0 435 0 435
130 0 130 0 0 65 0 65 -340 0 -340 0 0 -65z"/>
<path d="M18990 4910 l0 -500 70 0 70 0 0 223 0 224 123 7 c142 7 200 24 247
69 53 52 75 109 75 203 0 70 -4 88 -30 139 -56 110 -129 135 -397 135 l-158 0
0 -500z m345 348 c21 -7 47 -25 58 -39 26 -36 33 -106 14 -151 -23 -54 -63
-71 -172 -72 l-90 -1 -3 129 c-1 72 0 136 3 144 4 12 20 14 79 9 40 -4 90 -12
111 -19z"/>
<path d="M22850 5180 l0 -120 -60 0 -60 0 0 -65 0 -65 60 0 60 0 0 -260 0
-260 70 0 70 0 0 260 0 260 55 0 55 0 0 65 0 65 -55 0 -55 0 0 120 0 120 -70
0 -70 0 0 -120z"/>
<path d="M25720 5180 l0 -120 -60 0 -60 0 0 -65 0 -65 60 0 60 0 0 -260 0
-260 70 0 70 0 0 260 0 260 55 0 55 0 0 65 0 65 -55 0 -55 0 0 120 0 120 -70
0 -70 0 0 -120z"/>
<path d="M3952 5064 c-105 -28 -177 -85 -222 -177 -71 -145 -41 -302 79 -410
71 -64 121 -81 236 -82 91 0 105 3 153 28 113 59 175 142 194 260 29 168 -85
338 -257 382 -72 18 -113 18 -183 -1z m177 -134 c151 -76 158 -302 14 -387
-125 -73 -279 9 -299 160 -23 166 144 299 285 227z"/>
<path d="M5624 5061 c-28 -13 -50 -33 -68 -62 l-26 -44 0 53 0 52 -70 0 -70 0
0 -325 0 -325 70 0 70 0 0 193 c0 213 12 281 56 322 31 29 86 38 135 21 l38
-13 20 46 c30 71 30 73 -14 87 -57 18 -94 16 -141 -5z"/>
<path d="M7385 5069 c-49 -12 -96 -43 -121 -81 -10 -15 -22 -28 -26 -28 -5 0
-8 23 -8 50 l0 50 -70 0 -70 0 0 -475 0 -475 70 0 70 0 0 190 c0 105 4 190 8
190 5 0 21 -14 38 -31 45 -48 98 -69 179 -69 119 0 207 58 259 169 18 39 21
65 21 171 0 110 -3 131 -24 177 -32 71 -104 137 -172 157 -58 18 -94 19 -154
5z m115 -140 c65 -40 91 -93 92 -188 1 -91 -18 -145 -63 -186 -62 -56 -155
-57 -224 -3 -81 64 -100 248 -33 333 53 67 157 87 228 44z"/>
<path d="M8067 5066 c-93 -26 -174 -122 -198 -235 -12 -60 -7 -182 11 -243 17
-59 71 -130 123 -162 39 -24 62 -30 127 -34 71 -4 85 -2 135 22 30 15 63 38
74 52 26 33 31 30 31 -16 l0 -40 70 0 70 0 0 325 0 325 -70 0 -70 0 0 -52 -1
-53 -31 38 c-17 21 -48 47 -69 58 -51 25 -141 32 -202 15z m210 -134 c64 -35
93 -98 93 -201 -1 -158 -117 -255 -245 -206 -79 29 -115 94 -115 205 0 103 38
177 105 206 42 18 124 17 162 -4z"/>
<path d="M8944 5070 c-113 -24 -221 -118 -250 -218 -12 -39 -15 -81 -12 -146
3 -77 8 -99 33 -145 38 -68 102 -125 174 -152 46 -17 72 -20 146 -17 52 3 106
12 128 21 l37 16 0 82 0 83 -27 -26 c-38 -36 -74 -48 -144 -48 -108 0 -179 57
-201 163 -22 104 23 211 106 251 57 27 144 21 210 -14 l57 -29 -3 76 -3 76
-40 14 c-51 18 -158 25 -211 13z"/>
<path d="M9553 5065 c-101 -28 -165 -84 -212 -185 -21 -46 -26 -70 -26 -145 0
-113 21 -177 80 -243 67 -75 125 -97 255 -97 95 0 111 3 162 28 33 16 75 48
99 75 67 76 67 75 -3 112 -42 22 -63 29 -66 21 -9 -26 -56 -73 -93 -91 -46
-24 -147 -27 -187 -6 -55 28 -102 103 -102 161 l0 25 261 0 261 0 -6 58 c-16
133 -78 229 -175 271 -66 28 -179 36 -248 16z m199 -132 c37 -21 65 -58 74
-95 l6 -28 -181 0 c-119 0 -181 4 -181 10 0 6 9 28 19 49 20 39 55 67 100 82
39 13 128 3 163 -18z"/>
<path d="M13265 5066 c-29 -12 -64 -47 -92 -92 -10 -16 -12 -11 -12 34 l-1 52
-70 0 -70 0 0 -325 0 -325 69 0 69 0 4 208 c4 184 6 212 25 254 33 72 83 94
174 75 36 -7 36 -7 57 44 12 28 20 55 17 59 -6 10 -87 30 -117 30 -13 -1 -37
-7 -53 -14z"/>
<path d="M15613 5070 c-63 -13 -114 -43 -164 -97 -65 -69 -84 -125 -84 -248 0
-87 3 -107 26 -156 31 -66 84 -120 148 -151 39 -20 62 -23 156 -23 115 0 148
10 226 68 25 18 89 98 89 110 0 7 -110 70 -114 66 -1 -2 -15 -21 -30 -41 -42
-56 -102 -81 -184 -76 -49 2 -76 9 -99 26 -34 24 -70 89 -75 137 l-3 30 259 3
259 2 -5 70 c-9 126 -82 229 -186 265 -58 19 -164 27 -219 15z m186 -134 c36
-19 71 -70 71 -103 0 -23 0 -23 -175 -23 -164 0 -175 1 -175 19 0 32 44 85 90
109 36 19 56 23 101 19 31 -3 70 -12 88 -21z"/>
<path d="M16282 5061 c-89 -31 -133 -86 -134 -170 0 -27 7 -63 17 -80 20 -39
96 -89 193 -127 92 -36 122 -62 122 -107 0 -54 -38 -82 -109 -82 -65 1 -102
19 -130 65 l-17 29 -57 -32 -57 -33 25 -36 c14 -21 46 -50 72 -65 41 -24 60
-28 143 -30 81 -3 103 0 149 19 75 32 113 81 119 152 2 30 2 66 -2 80 -15 59
-81 108 -211 157 -74 28 -115 63 -115 99 0 79 134 98 190 29 15 -19 17 -18 63
13 26 18 47 36 47 40 0 3 -14 20 -31 37 -57 58 -178 76 -277 42z"/>
<path d="M19869 5067 c-108 -31 -191 -107 -225 -210 -21 -59 -23 -179 -6 -242
28 -100 110 -182 210 -211 74 -22 200 -15 264 13 52 24 124 86 151 131 l17 30
-57 31 -57 31 -40 -46 c-48 -56 -87 -74 -160 -74 -66 0 -102 12 -139 48 -24
23 -57 103 -57 139 0 10 52 13 261 13 l262 0 -7 67 c-13 125 -64 206 -159 252
-74 37 -184 49 -258 28z m162 -118 c19 -7 45 -21 58 -33 22 -20 51 -73 51 -96
0 -6 -63 -10 -180 -10 -99 0 -180 2 -180 5 0 19 32 74 57 98 48 45 125 59 194
36z"/>
<path d="M21603 5070 c-101 -21 -194 -103 -233 -206 -19 -50 -21 -73 -18 -154
4 -77 10 -105 31 -147 34 -66 81 -113 143 -144 43 -21 63 -24 159 -24 115 0
148 10 226 68 25 18 89 98 89 110 0 5 -106 67 -114 67 -2 0 -15 -17 -29 -39
-38 -57 -100 -84 -185 -79 -49 2 -76 9 -99 26 -34 24 -70 89 -75 137 l-3 30
259 3 259 2 -5 70 c-9 126 -82 229 -186 265 -58 19 -164 27 -219 15z m184
-134 c35 -18 73 -73 73 -105 0 -21 -3 -21 -180 -21 l-180 0 15 37 c21 50 42
72 90 95 47 22 134 20 182 -6z"/>
<path d="M22393 5070 c-97 -20 -185 -88 -231 -175 -37 -72 -43 -215 -13 -296
29 -75 88 -141 159 -176 52 -25 67 -28 162 -28 77 0 115 5 143 17 l37 17 0 81
0 81 -22 -22 c-36 -34 -82 -49 -148 -49 -131 0 -204 77 -204 215 0 84 25 139
80 182 31 23 49 28 110 31 66 4 78 1 129 -26 l56 -31 -3 77 -3 77 -40 13 c-52
17 -159 23 -212 12z"/>
<path d="M25012 5062 c-66 -24 -124 -79 -159 -150 -38 -77 -44 -221 -15 -319
39 -127 120 -192 250 -201 88 -6 143 12 192 63 19 19 38 35 42 35 4 0 8 -18 8
-40 l0 -40 70 0 70 0 0 325 0 325 -70 0 -70 0 0 -50 c0 -27 -3 -50 -7 -50 -5
0 -18 15 -30 34 -46 71 -180 104 -281 68z m217 -127 c84 -43 121 -157 90 -279
-42 -168 -260 -195 -330 -41 -36 78 -21 222 29 279 49 55 148 74 211 41z"/>
<path d="M26315 5067 c-107 -28 -185 -91 -229 -186 -17 -38 -21 -65 -21 -151
0 -86 4 -113 21 -151 31 -67 87 -124 152 -156 51 -25 67 -28 162 -28 77 0 115
5 143 17 l37 17 0 76 0 75 -42 -27 c-33 -22 -55 -28 -112 -31 -121 -6 -192 48
-216 162 -21 100 18 199 95 244 34 19 52 22 116 20 63 -3 82 -8 117 -31 l42
-27 0 75 0 76 -35 15 c-50 20 -170 26 -230 11z"/>
<path d="M4562 4828 c3 -219 5 -236 27 -285 47 -105 135 -153 281 -153 106 0
172 22 224 73 68 69 78 114 84 375 l4 222 -70 0 -71 0 -3 -217 c-3 -243 -10
-272 -71 -308 -42 -25 -149 -26 -194 -2 -65 35 -68 47 -71 299 l-3 228 -70 0
-71 0 4 -232z"/>
<path d="M12193 4838 c5 -264 14 -306 82 -373 53 -54 118 -75 225 -75 146 0
234 48 281 153 22 49 24 66 27 285 l4 232 -71 0 -70 0 -3 -228 c-3 -253 -6
-265 -71 -299 -46 -24 -152 -23 -194 2 -61 36 -68 65 -71 308 l-4 217 -70 0
-70 0 5 -222z"/>
<path d="M14680 4735 l0 -325 70 0 70 0 0 325 0 325 -70 0 -70 0 0 -325z"/>
<path d="M10182 4391 c-34 -98 -62 -182 -62 -185 0 -5 65 -36 75 -36 3 0 175
350 175 356 0 3 -108 44 -119 44 -4 0 -35 -81 -69 -179z"/>
<path d="M16826 4397 c-32 -94 -61 -177 -63 -184 -4 -10 54 -43 74 -43 9 0
174 352 168 358 -8 8 -97 42 -110 42 -5 0 -36 -78 -69 -173z"/>
<path d="M27611 4546 c-33 -35 -31 -93 4 -123 81 -70 189 43 115 122 -32 34
-88 34 -119 1z"/>
</g>
</svg>
