<?xml version="1.0" encoding="utf-8"?>
<!-- Generator: Adobe Illustrator 25.2.1, SVG Export Plug-In . SVG Version: 6.00 Build 0)  -->
<svg version="1.1" id="Livello_1" xmlns="http://www.w3.org/2000/svg" xmlns:xlink="http://www.w3.org/1999/xlink" x="0px" y="0px"
	 viewBox="0 0 66.4 57.6" style="enable-background:new 0 0 66.4 57.6;" xml:space="preserve">
<path id="Tracciato_29" d="M47.6,12.5H19.4c-2.6,0-4.7,2.1-4.7,4.7v17.6c0,2.6,2.1,4.7,4.7,4.7H23v7c0,0.6,0.5,1.2,1.2,1.2
	c0.3,0,0.6-0.1,0.8-0.3l9.1-7.9h13.6c2.6,0,4.7-2.1,4.7-4.7V17.2C52.3,14.6,50.2,12.5,47.6,12.5z M50,34.8c0,1.3-1.1,2.3-2.3,2.3
	H33.5c-0.3,0-0.6,0.1-0.8,0.3L25.3,44v-5.6c0-0.6-0.5-1.2-1.2-1.2h0h-4.7c-1.3,0-2.3-1.1-2.3-2.3V17.2c0-1.3,1.1-2.3,2.3-2.3h28.2
	c1.3,0,2.3,1.1,2.3,2.3L50,34.8z"/>
<path id="Tracciato_30" d="M39.4,27.8H28.8c-0.6,0-1.2,0.6-1.1,1.2c0,0.6,0.5,1.1,1.1,1.1h10.6c0.6,0,1.2-0.6,1.1-1.2
	C40.5,28.3,40,27.8,39.4,27.8L39.4,27.8z"/>
<path id="Tracciato_31" d="M39.4,21.9H28.8c-0.6,0-1.2,0.5-1.2,1.1c0,0.6,0.5,1.2,1.1,1.2c0,0,0,0,0.1,0h10.6c0.6,0,1.2-0.5,1.2-1.1
	C40.6,22.5,40.1,21.9,39.4,21.9C39.4,21.9,39.4,21.9,39.4,21.9L39.4,21.9z"/>
</svg>
