<?xml version="1.0" encoding="utf-8"?>
<!-- Generator: Adobe Illustrator 25.2.1, SVG Export Plug-In . SVG Version: 6.00 Build 0)  -->
<svg version="1.1" id="Livello_1" xmlns="http://www.w3.org/2000/svg" xmlns:xlink="http://www.w3.org/1999/xlink" x="0px" y="0px"
	 viewBox="0 0 66.4 57.6" style="enable-background:new 0 0 66.4 57.6;" xml:space="preserve">
<style type="text/css">
	.st0{fill:#231F20;}
</style>
<g id="Raggruppa_17">
	<path id="Tracciato_22" class="st0" d="M45.6,21l-9.2-10.5c-0.4-0.4-0.9-0.7-1.5-0.7H20.2c-1.4,0-2.6,1.1-2.6,2.5v32.8
		c0,1.4,1.2,2.6,2.6,2.5h23.2c1.4,0,2.6-1.1,2.6-2.5v-23C46,21.8,45.9,21.4,45.6,21z M34.7,12l8.4,9.6h-7.9c-0.3,0-0.5-0.2-0.5-0.5
		L34.7,12z M43.9,45.2c0,0.3-0.2,0.5-0.5,0.5H20.2c-0.3,0-0.5-0.2-0.5-0.5V12.4c0-0.3,0.2-0.5,0.5-0.5h12.4v9.1
		c0,1.4,1.2,2.6,2.6,2.5h8.7L43.9,45.2z"/>
	<path id="Tracciato_23" class="st0" d="M25.9,36.3h-2.9v7.1h1.4v-2.8H26c0.6,0,1.2-0.2,1.7-0.6c0.9-0.8,0.9-2.2,0.1-3.1
		C27.2,36.5,26.6,36.3,25.9,36.3z M26.6,39.2c-0.2,0.2-0.5,0.3-0.8,0.3h-1.4v-1.9h1.3c0.3,0,0.7,0.1,1,0.3c0.2,0.2,0.3,0.4,0.3,0.7
		C26.9,38.7,26.8,39,26.6,39.2L26.6,39.2z"/>
	<path id="Tracciato_24" class="st0" d="M31.8,36.3h-2.6v7.1h2.4c1,0.1,1.9-0.3,2.6-1c0.6-0.7,0.9-1.6,0.9-2.5
		c0-0.9-0.3-1.8-0.9-2.5C33.6,36.7,32.7,36.3,31.8,36.3z M32.9,41.7c-0.3,0.4-0.8,0.6-1.4,0.6h-1v-4.8h1.1c0.5,0,1,0.2,1.3,0.7
		c0.3,0.5,0.5,1.1,0.5,1.7C33.6,40.5,33.4,41.1,32.9,41.7L32.9,41.7z"/>
	<path id="Tracciato_25" class="st0" d="M37.5,40.5h2.4v-1.2h-2.4v-1.7h3.1v-1.2H36v7.1h1.4L37.5,40.5z"/>
</g>
<rect id="Rettangolo_16" x="18.6" y="31.9" class="st0" width="26.3" height="2.2"/>
</svg>
